<?xml version="1.0" encoding="UTF-8" standalone="no"?>
<!-- Created with Inkscape (http://www.inkscape.org/) -->

<svg
   xmlns:dc="http://purl.org/dc/elements/1.1/"
   xmlns:cc="http://creativecommons.org/ns#"
   xmlns:rdf="http://www.w3.org/1999/02/22-rdf-syntax-ns#"
   xmlns:svg="http://www.w3.org/2000/svg"
   xmlns="http://www.w3.org/2000/svg"
   xmlns:sodipodi="http://sodipodi.sourceforge.net/DTD/sodipodi-0.dtd"
   xmlns:inkscape="http://www.inkscape.org/namespaces/inkscape"
   version="1.1"
   width="461.05258"
   height="78.952751"
   id="svg2991"
   inkscape:version="0.48.4 r9939"
   sodipodi:docname="pitot-board.svg">
  <sodipodi:namedview
     pagecolor="#ffffff"
     bordercolor="#666666"
     borderopacity="1"
     objecttolerance="10"
     gridtolerance="10"
     guidetolerance="10"
     inkscape:pageopacity="0"
     inkscape:pageshadow="2"
     inkscape:window-width="1600"
     inkscape:window-height="828"
     id="namedview3039"
     showgrid="false"
     inkscape:snap-bbox="true"
     inkscape:bbox-nodes="true"
     inkscape:object-nodes="true"
     fit-margin-top="0"
     fit-margin-left="0"
     fit-margin-right="0"
     fit-margin-bottom="0"
     inkscape:snap-bbox-edge-midpoints="true"
     inkscape:zoom="1.6567055"
     inkscape:cx="317.8915"
     inkscape:cy="24.900568"
     inkscape:window-x="0"
     inkscape:window-y="24"
     inkscape:window-maximized="1"
     inkscape:current-layer="svg2991"
     inkscape:snap-nodes="true"
     inkscape:snap-global="true"
     inkscape:object-paths="true"
     inkscape:bbox-paths="true"
     inkscape:snap-center="true"
     inkscape:snap-object-midpoints="true"
     inkscape:snap-page="false"
     inkscape:snap-to-guides="true"
     inkscape:snap-intersection-paths="true"
     inkscape:snap-smooth-nodes="true"
     inkscape:snap-bbox-midpoints="true"
     showguides="true"
     inkscape:guide-bbox="true" />
  <defs
     id="defs2993" />
  <metadata
     id="metadata2996">
    <rdf:RDF>
      <cc:Work
         rdf:about="">
        <dc:format>image/svg+xml</dc:format>
        <dc:type
           rdf:resource="http://purl.org/dc/dcmitype/StillImage" />
        <dc:title />
      </cc:Work>
    </rdf:RDF>
  </metadata>
  <g
     transform="translate(-91.504692,-391.84665)"
     id="board">
    <path
       d="m 92.004688,392.34665 0,77.95275 96.892442,0 13.71874,-11.82123 78.58934,0.0632 0,-26.57517 3.5433,3.7e-4 0,26.57444 c 1.58479,0.0661 183.95983,-0.0629 183.95983,-0.0629 l 8.44957,-13.87721 74.89936,-4.1e-4 0,-26.57786 -74.89938,0.0594 -8.44956,-13.91417 -58.88198,5.1e-4 0,26.5748 -3.54331,0 0,-26.5748 -203.66756,0 -13.71874,-11.82123 z"
       id="path3775"
       style="color:#000000;fill:#348040;fill-opacity:0.50196078;stroke:none;stroke-width:0.44999999;marker:none;visibility:visible;display:inline;overflow:visible;enable-background:accumulate"
       inkscape:connector-curvature="0"
       sodipodi:nodetypes="ccccccccccccccccccccc" />
  </g>
  <g
     transform="translate(-105.93562,-397.79511)"
     id="silkscreen">
    <path
       d="m 106.43562,398.29511 0,77.95275 96.89244,0 13.71874,-11.82123 78.58934,0.0632 0,-26.57517 3.5433,3.7e-4 0,26.57444 183.95983,-0.0629 8.44957,-13.87721 74.89936,-4.1e-4 0,-26.57786 -74.89938,0.0594 -8.44956,-13.91417 -58.88198,0 0,26.5748 -3.54331,0 0,-26.5748 -203.66756,5.1e-4 -13.71874,-11.82123 z"
       id="outline"
       style="fill:none;stroke:#ffffff;stroke-opacity:1"
       inkscape:connector-curvature="0"
       sodipodi:nodetypes="ccccccccccccccccccccc" />
  </g>
</svg>
