<?xml version="1.0" encoding="UTF-8" standalone="no"?>
<!-- Created with Inkscape (http://www.inkscape.org/) -->

<svg
   xmlns:dc="http://purl.org/dc/elements/1.1/"
   xmlns:cc="http://creativecommons.org/ns#"
   xmlns:rdf="http://www.w3.org/1999/02/22-rdf-syntax-ns#"
   xmlns:svg="http://www.w3.org/2000/svg"
   xmlns="http://www.w3.org/2000/svg"
   version="1.1"
   width="496.48566"
   height="78.952751"
   id="svg2991">
  <defs
     id="defs2993" />
  <metadata
     id="metadata2996">
    <rdf:RDF>
      <cc:Work
         rdf:about="">
        <dc:format>image/svg+xml</dc:format>
        <dc:type
           rdf:resource="http://purl.org/dc/dcmitype/StillImage" />
        <dc:title></dc:title>
      </cc:Work>
    </rdf:RDF>
  </metadata>
  <g
     transform="translate(-91.504692,-391.84665)"
     id="board">
    <path
       d="m 92.004688,392.34665 0,77.95275 96.892442,0 13.71874,-11.82123 78.58934,0.0632 0,-26.57517 3.5433,3.7e-4 0,26.57444 c 1.58479,0.0661 183.95983,-0.0629 183.95983,-0.0629 l 8.44957,-13.87721 110.33244,-4.1e-4 0,-26.57786 -110.33246,0.0594 -8.44956,-13.91417 -58.88198,5.1e-4 0,26.5748 -3.54331,0 0,-26.5748 -203.66756,0 -13.71874,-11.82123 z"
       id="path3775"
       style="color:#000000;fill:#348040;fill-opacity:0.50196078;stroke:none;stroke-width:0.44999999;marker:none;visibility:visible;display:inline;overflow:visible;enable-background:accumulate" />
  </g>
  <g
     transform="translate(-105.93562,-397.79511)"
     id="silkscreen">
    <path
       d="m 106.43562,398.29511 0,77.95275 96.89244,0 13.71874,-11.82123 78.58934,0.0632 0,-26.57517 3.5433,3.7e-4 0,26.57444 183.95983,-0.0629 8.44957,-13.87721 110.33244,-4.1e-4 0,-26.57786 -110.33246,0.0594 -8.44956,-13.91417 -58.88198,0 0,26.5748 -3.54331,0 0,-26.5748 -203.66756,5.1e-4 -13.71874,-11.82123 z"
       id="outline"
       style="fill:none;stroke:#ffffff;stroke-opacity:1" />
  </g>
</svg>
